# xmcd
# 
# Track frame offsets:
#     150
#     20859
#     42569
#     62110
#     84218
#     101989
#     127780
# 
# Disc length: 1922
# 
# Revision: 1
# Processed by: cddbd v1.5.2PL0 Copyright (c) Steve Scherf et al.
# Submitted via: fre:ac v1.0.17
# 
DISCID=5a078007
DTITLE=テゴマス - テゴマスのあい
DYEAR=0
DGENRE=Unknown Genre
TTITLE0=音色
TTITLE1=もしも、この世界から〇〇がなくなったら
TTITLE2=ぼくらの空
TTITLE3=パスタ
TTITLE4=チーター　ゴリラ　オラウータン
TTITLE5=夜は星をながめておくれ
TTITLE6=chu chu chu!
EXTD=
EXTT0=
EXTT1=
EXTT2=
EXTT3=
EXTT4=
EXTT5=
EXTT6=
PLAYORDER=
